<svg xmlns="http://www.w3.org/2000/svg" viewBox="770 876 380 168">
<path fill="#ffffff" d="M 906.09375 923.269531 L 906.09375 1037.257812 L 881.820312 1037.257812 L 881.820312 944.414062 L 839.960938 944.414062 L 839.960938 1037.257812 L 815.6875 1037.257812 L 815.6875 944.414062 L 774.945312 944.414062 L 774.945312 923.269531 L 815.6875 923.269531 L 815.6875 911.910156 C 815.6875 891.878906 825.496094 881.410156 847.539062 881.410156 L 906.09375 881.410156 L 906.09375 902.566406 L 850.875 902.566406 C 843.078125 902.566406 839.960938 905.902344 839.960938 913.695312 L 839.960938 923.269531 Z"/>
<path fill="#ffffff" d="M 1003.480469 980.261719 C 1003.480469 958.21875 990.140625 942.410156 969.871094 942.410156 C 949.605469 942.410156 936.480469 958.21875 936.480469 980.261719 C 936.480469 1002.304688 949.605469 1018.113281 969.871094 1018.113281 C 990.140625 1018.113281 1003.480469 1002.304688 1003.480469 980.261719 M 911.773438 980.261719 C 911.773438 945.53125 935.136719 921.9375 969.871094 921.9375 C 1004.605469 921.9375 1027.972656 945.53125 1027.972656 980.261719 C 1027.972656 1015.214844 1004.605469 1038.589844 969.871094 1038.589844 C 935.136719 1038.589844 911.773438 1015.214844 911.773438 980.261719"/>
<path fill="#ffffff" d="M 1124.0625 953.773438 L 1124.0625 1037.253906 L 1099.8125 1037.253906 L 1099.8125 955.535156 C 1099.8125 947.753906 1096.6875 944.402344 1088.90625 944.402344 L 1057.730469 944.402344 L 1057.730469 1037.253906 L 1033.652344 1037.253906 L 1033.652344 923.277344 L 1092.257812 923.277344 C 1114.292969 923.277344 1124.0625 933.726562 1124.0625 953.773438"/>
<path fill="#ffffff" d="M 1124.0625 881.410156 L 1132.328125 881.410156 L 1132.328125 882.953125 L 1129.0625 882.953125 L 1129.0625 891.988281 L 1127.324219 891.988281 L 1127.324219 882.953125 L 1124.0625 882.953125 Z"/>
<path fill="#ffffff" d="M 1133.890625 881.410156 L 1136.140625 881.410156 L 1139.527344 889.738281 L 1142.847656 881.410156 L 1145.054688 881.410156 L 1145.054688 891.988281 L 1143.378906 891.988281 L 1143.378906 884.207031 L 1140.203125 891.988281 L 1138.738281 891.988281 L 1135.566406 884.207031 L 1135.566406 891.988281 L 1133.890625 891.988281 Z"/>
</svg>
